<svg id="svg" xmlns="http://www.w3.org/2000/svg" xmlns:xlink="http://www.w3.org/1999/xlink" width="400" height="400" viewBox="0, 0, 400,400"><g id="svgg"><path id="path0" d="M200.977 11.841 C 196.248 12.442,192.622 13.912,189.435 16.519 C 188.207 17.524,185.742 20.303,185.742 20.684 C 185.742 21.190,184.442 21.524,178.809 22.464 C 161.040 25.429,148.423 35.958,144.823 50.824 C 139.298 73.644,150.399 94.984,171.923 102.916 C 176.805 104.716,184.621 105.961,188.460 105.552 C 190.466 105.338,191.813 106.032,192.204 107.482 C 192.678 109.243,191.791 109.947,188.855 110.140 C 185.082 110.389,184.608 111.067,184.540 116.311 C 184.444 123.653,184.920 124.495,189.338 124.801 C 191.672 124.963,192.255 125.382,192.149 126.824 C 192.081 127.743,191.520 128.047,188.864 128.601 C 184.954 129.416,183.292 132.939,184.712 137.402 C 185.567 140.087,186.192 140.614,190.527 142.307 C 191.310 142.613,191.600 142.862,191.992 143.561 L 192.480 144.434 192.578 167.578 C 192.667 188.618,192.672 206.069,192.602 255.684 L 192.578 272.598 192.130 273.262 L 191.683 273.926 188.142 273.926 C 184.871 273.926,184.560 273.956,184.061 274.328 C 182.726 275.323,182.792 274.804,182.791 284.268 L 182.791 292.830 183.408 293.467 C 184.346 294.435,185.203 294.565,190.277 294.507 C 195.401 294.448,195.055 294.309,195.168 296.484 C 195.380 300.585,195.176 300.781,190.703 300.781 C 187.952 300.781,187.709 300.811,187.185 301.214 C 186.322 301.876,186.334 301.811,186.331 305.830 L 186.328 309.609 185.675 310.262 L 185.022 310.915 166.486 310.868 C 146.188 310.815,147.221 310.757,146.122 312.009 L 145.508 312.709 145.486 317.438 C 145.460 323.163,145.442 322.930,146.000 324.031 C 146.718 325.448,146.161 325.390,159.140 325.399 C 167.826 325.406,170.942 325.469,171.355 325.645 L 171.910 325.882 171.884 329.390 C 171.863 332.329,171.807 332.954,171.541 333.248 C 171.242 333.578,170.537 333.598,159.507 333.591 L 147.790 333.582 147.044 334.076 C 145.772 334.918,145.730 335.076,145.909 338.379 C 145.996 339.990,146.073 345.718,146.080 351.108 L 146.094 360.908 146.599 361.508 L 147.105 362.109 166.120 362.109 L 185.134 362.109 185.682 362.580 L 186.230 363.052 186.345 366.926 C 186.497 372.067,186.499 372.070,189.829 372.070 C 193.112 372.070,194.140 373.045,192.976 375.053 C 191.713 377.228,191.866 381.553,193.309 384.525 C 196.736 391.584,208.090 392.133,212.398 385.449 C 214.260 382.561,214.709 377.993,213.394 375.307 C 212.213 372.893,212.982 372.070,216.421 372.070 C 218.479 372.070,219.408 371.762,219.661 370.996 C 219.732 370.781,219.807 359.092,219.828 345.020 C 219.848 330.947,219.881 315.561,219.901 310.827 C 219.921 306.094,219.889 302.094,219.829 301.940 C 219.476 301.029,218.561 300.781,215.545 300.781 C 211.118 300.781,211.064 300.739,211.088 297.307 C 211.109 294.212,210.680 294.458,215.974 294.510 C 221.055 294.560,221.908 294.431,222.842 293.467 L 223.459 292.830 223.459 284.268 C 223.458 274.804,223.524 275.323,222.189 274.328 C 221.690 273.956,221.379 273.926,218.108 273.926 L 214.567 273.926 214.120 273.262 L 213.672 272.598 213.649 255.684 C 213.580 203.311,213.583 188.555,213.672 167.578 L 213.770 144.434 214.216 143.597 C 214.695 142.700,214.888 142.584,217.533 141.591 C 220.069 140.639,220.908 139.675,221.694 136.811 C 222.849 132.600,221.164 129.389,217.386 128.601 C 214.730 128.047,214.169 127.743,214.101 126.824 C 213.995 125.382,214.578 124.963,216.916 124.801 C 221.344 124.494,221.823 123.635,221.710 116.211 C 221.632 111.071,221.146 110.388,217.395 110.140 C 214.459 109.947,213.572 109.243,214.046 107.482 C 214.437 106.032,215.784 105.338,217.790 105.552 C 221.629 105.961,229.445 104.716,234.327 102.916 C 255.851 94.984,266.952 73.644,261.427 50.824 C 257.819 35.925,245.264 25.449,227.441 22.465 C 222.696 21.671,221.764 21.478,221.143 21.161 C 220.793 20.983,220.508 20.768,220.508 20.684 C 220.508 20.307,218.050 17.529,216.843 16.542 C 212.665 13.123,206.127 11.186,200.977 11.841 M188.724 39.329 C 196.431 47.161,209.818 47.163,217.523 39.332 C 218.906 37.926,218.952 37.898,219.770 37.985 C 220.230 38.033,221.372 38.120,222.308 38.178 C 248.020 39.761,257.168 70.823,235.840 84.127 C 227.873 89.097,219.954 89.238,211.719 84.558 C 207.005 81.879,206.401 81.648,203.822 81.541 C 200.572 81.405,199.443 81.766,194.727 84.448 C 185.358 89.774,176.643 89.076,167.846 82.294 C 160.951 76.979,157.862 69.561,158.781 60.526 C 160.072 47.836,170.926 38.744,185.645 38.022 C 186.289 37.990,186.927 37.948,187.063 37.928 C 187.199 37.907,187.946 38.538,188.724 39.329 M127.561 136.155 C 107.541 136.294,104.178 136.389,97.363 137.003 C 95.645 137.158,93.096 137.381,91.699 137.498 C 88.548 137.763,83.586 138.408,81.641 138.806 C 80.835 138.970,79.165 139.308,77.930 139.556 C 75.611 140.022,74.582 140.276,72.070 141.003 C 70.470 141.466,70.501 141.455,67.676 142.486 C 53.834 147.536,46.764 158.127,49.097 170.314 C 51.685 183.836,69.334 195.287,88.672 195.991 C 91.095 196.079,91.148 196.086,90.820 196.270 C 90.659 196.360,89.297 196.483,87.793 196.543 C 75.186 197.047,58.014 201.842,49.861 207.135 C 27.692 221.525,34.010 249.447,61.914 260.403 C 70.021 263.586,74.862 264.485,85.840 264.843 C 89.385 264.959,93.296 265.143,94.531 265.253 C 97.611 265.525,109.678 265.495,115.886 265.200 C 118.696 265.066,124.731 264.970,129.297 264.986 C 133.862 265.002,144.893 265.024,153.809 265.033 C 166.836 265.048,170.441 265.107,172.168 265.336 C 176.420 265.901,177.942 265.639,177.630 264.397 C 177.448 263.673,176.736 263.153,175.417 262.782 C 167.790 260.635,164.160 252.363,163.079 234.668 C 162.709 228.611,162.937 152.096,163.331 150.098 C 164.272 145.325,166.700 142.126,171.099 139.862 C 173.752 138.497,174.121 137.956,173.096 136.935 C 172.018 135.863,171.279 135.850,127.561 136.155 M233.400 136.362 C 232.054 137.285,232.430 138.297,234.651 139.730 C 238.943 142.501,240.292 145.500,241.245 154.395 C 241.664 158.303,241.586 239.667,241.160 243.750 C 240.002 254.839,237.487 260.824,233.329 262.386 C 230.612 263.406,230.011 263.957,230.505 264.974 C 230.888 265.762,231.211 265.785,238.189 265.511 C 247.764 265.136,254.318 265.106,262.695 265.402 C 270.762 265.687,271.176 265.657,271.399 264.767 C 271.604 263.950,271.220 263.630,268.328 262.212 C 263.335 259.764,261.095 255.648,259.718 246.387 C 259.200 242.906,259.000 211.451,259.478 208.698 C 261.139 199.131,275.139 196.154,285.549 203.154 C 288.368 205.049,293.610 209.855,296.146 212.869 C 296.923 213.793,297.760 214.769,298.005 215.038 C 299.707 216.903,302.203 220.329,306.473 226.660 C 307.994 228.916,310.390 232.411,311.797 234.426 C 313.204 236.442,315.045 239.079,315.888 240.286 C 316.731 241.493,318.726 244.458,320.322 246.875 C 321.918 249.292,324.078 252.500,325.121 254.004 C 326.164 255.508,328.287 258.584,329.839 260.840 C 331.391 263.096,332.822 265.110,333.019 265.316 C 333.381 265.695,336.312 265.633,342.969 265.106 C 345.132 264.935,352.649 264.997,357.227 265.224 C 365.538 265.636,367.188 265.512,367.188 264.471 C 367.188 263.751,367.079 263.674,362.598 261.232 C 357.318 258.355,355.577 257.120,351.182 253.137 C 349.231 251.370,344.961 247.051,344.025 245.898 C 343.719 245.522,342.933 244.600,342.277 243.848 C 340.318 241.603,337.555 238.038,335.842 235.547 C 335.288 234.741,333.034 231.445,330.832 228.223 C 316.985 207.950,311.291 202.209,301.025 198.170 C 296.733 196.482,293.816 195.876,285.352 194.917 C 283.017 194.653,275.398 194.141,273.797 194.141 C 272.149 194.141,272.152 194.099,273.888 192.780 C 277.793 189.815,302.119 171.620,303.536 170.605 C 305.641 169.097,311.489 164.709,314.746 162.193 C 328.623 151.473,335.317 147.330,346.387 142.609 C 351.965 140.230,355.060 138.751,355.195 138.399 C 355.840 136.719,351.171 135.599,345.654 136.110 C 342.391 136.412,336.126 136.732,333.398 136.736 C 331.152 136.739,329.689 136.666,325.293 136.327 C 320.144 135.931,319.687 135.918,318.619 136.140 C 315.923 136.699,315.590 138.101,317.778 139.680 C 322.765 143.280,322.305 145.643,315.197 152.933 C 313.429 154.746,311.756 156.225,306.847 160.314 C 305.081 161.785,302.840 163.669,301.867 164.500 C 297.876 167.910,283.578 178.760,263.131 193.894 L 259.374 196.674 259.390 176.316 C 259.414 143.601,259.452 143.355,265.091 139.407 C 266.586 138.360,266.977 137.758,266.641 137.021 C 266.211 136.076,265.590 135.944,262.485 136.138 C 252.315 136.773,247.251 136.819,241.699 136.325 C 236.256 135.841,234.145 135.850,233.400 136.362 M145.124 154.639 C 145.128 161.702,145.183 173.303,145.246 180.420 L 145.360 193.359 124.868 193.359 C 104.605 193.359,100.776 193.264,97.656 192.683 C 96.851 192.533,95.143 192.220,93.862 191.987 C 92.581 191.753,90.911 191.362,90.151 191.117 C 89.391 190.872,88.242 190.521,87.598 190.338 C 75.719 186.963,68.579 175.742,70.420 163.342 C 72.027 152.519,79.525 146.176,94.141 143.277 C 100.369 142.042,104.547 141.852,126.221 141.823 L 145.117 141.797 145.124 154.639 M145.277 214.502 C 145.178 239.765,145.029 244.340,144.158 248.931 C 143.148 254.256,141.137 257.248,137.796 258.397 C 134.726 259.454,134.293 259.473,113.184 259.473 C 93.631 259.473,93.145 259.460,87.207 258.772 C 66.627 256.389,54.841 241.883,59.098 224.176 C 62.280 210.941,71.035 204.311,89.844 200.891 C 99.514 199.133,100.535 199.079,124.964 199.049 L 145.338 199.023 145.277 214.502 " stroke="none" fill="#000000" fill-rule="evenodd"></path></g></svg>